<svg xmlns="http://www.w3.org/2000/svg" xmlns:xlink="http://www.w3.org/1999/xlink" xmlns:lucid="lucid" width="1081" height="882"><g transform="translate(253.83333333333331 186.33333333333337)" lucid:page-tab-id="0_0"><path d="M-500-500h1500v1500H-500z" fill="#fff"/><path d="M-232.83 500.67a6 6 0 0 1 6-6h968a6 6 0 0 1 6 6v168a6 6 0 0 1-6 6h-968a6 6 0 0 1-6-6z" stroke="#282c33" stroke-width="2" fill="#fff"/><use xlink:href="#a" transform="matrix(1,0,0,1,-227.83333333333331,499.66666666666663) translate(0 17.77777777777778)"/><path d="M-212.83 540.67a6 6 0 0 1 6-6h148a6 6 0 0 1 6 6v108a6 6 0 0 1-6 6h-148a6 6 0 0 1-6-6z" stroke="#282c33" stroke-width="2" fill="#f2f3f5"/><use xlink:href="#b" transform="matrix(1,0,0,1,-207.83333333333331,539.6666666666666) translate(30.617283950617278 45.27777777777778)"/><use xlink:href="#c" transform="matrix(1,0,0,1,-207.83333333333331,539.6666666666666) translate(17.654320987654316 71.94444444444446)"/><path d="M67.17 540.67a6 6 0 0 1 6-6h148a6 6 0 0 1 6 6v108a6 6 0 0 1-6 6h-148a6 6 0 0 1-6-6z" stroke="#282c33" stroke-width="2" fill="#fff"/><use xlink:href="#d" transform="matrix(1,0,0,1,72.16666666666669,539.6666666666666) translate(31.79012345679012 45.27777777777778)"/><use xlink:href="#c" transform="matrix(1,0,0,1,72.16666666666669,539.6666666666666) translate(17.654320987654316 71.94444444444446)"/><path d="M487.17 642.67c0 6.62-26.87 12-60 12-33.14 0-60-5.38-60-12v-96c0-6.63 26.86-12 60-12 33.13 0 60 5.37 60 12z" stroke="#282c33" stroke-width="2" fill="#979ea8"/><path d="M487.17 546.67c0 6.62-26.87 12-60 12-33.14 0-60-5.38-60-12" stroke="#282c33" stroke-width="2" fill="none"/><use xlink:href="#e" transform="matrix(1,0,0,1,372.1666666666667,563.6666666666666) translate(1.9753086419753174 47.34027777777778)"/><use xlink:href="#f" transform="matrix(1,0,0,1,372.1666666666667,563.6666666666666) translate(55.00000000000001 47.34027777777778)"/><path d="M627.67 614.67h99M627.68 614.67h-.5M726.65 614.67h.52" stroke="#3a414a" fill="none"/><use xlink:href="#g" transform="matrix(1,0,0,1,648.5740740740741,618.6666666666667) translate(0 14.222222222222223)"/><path d="M-212.83-159.33a6 6 0 0 1 6-6h148a6 6 0 0 1 6 6v108a6 6 0 0 1-6 6h-148a6 6 0 0 1-6-6z" stroke="#282c33" stroke-width="2" fill="#f2f3f5"/><use xlink:href="#h" transform="matrix(1,0,0,1,-207.83333333333331,-160.33333333333337) translate(28.20987654320988 59.02777777777778)"/><use xlink:href="#i" transform="matrix(1,0,0,1,-207.83333333333331,-160.33333333333337) translate(99.62962962962962 59.02777777777778)"/><path d="M67.17-159.33a6 6 0 0 1 6-6h148a6 6 0 0 1 6 6v108a6 6 0 0 1-6 6h-148a6 6 0 0 1-6-6z" stroke="#282c33" stroke-width="2" fill="#fff"/><use xlink:href="#j" transform="matrix(1,0,0,1,72.16666666666669,-160.33333333333337) translate(24.6604938271605 45.27777777777778)"/><use xlink:href="#k" transform="matrix(1,0,0,1,72.16666666666669,-160.33333333333337) translate(89.53703703703704 45.27777777777778)"/><use xlink:href="#l" transform="matrix(1,0,0,1,72.16666666666669,-160.33333333333337) translate(31.203703703703702 71.94444444444446)"/><path d="M-212.83 60.67a6 6 0 0 1 6-6h148a6 6 0 0 1 6 6v108a6 6 0 0 1-6 6h-148a6 6 0 0 1-6-6z" stroke="#282c33" stroke-width="2" fill="#f2f3f5"/><use xlink:href="#m" transform="matrix(1,0,0,1,-207.83333333333331,59.66666666666663) translate(20.185185185185183 59.02777777777778)"/><use xlink:href="#i" transform="matrix(1,0,0,1,-207.83333333333331,59.66666666666663) translate(107.65432098765433 59.02777777777778)"/><path d="M67.17 60.67a6 6 0 0 1 6-6h148a6 6 0 0 1 6 6v108a6 6 0 0 1-6 6h-148a6 6 0 0 1-6-6z" stroke="#282c33" stroke-width="2" fill="#fff"/><use xlink:href="#n" transform="matrix(1,0,0,1,72.16666666666669,59.66666666666663) translate(15.771604938271608 45.27777777777778)"/><use xlink:href="#o" transform="matrix(1,0,0,1,72.16666666666669,59.66666666666663) translate(108.3641975308642 45.27777777777778)"/><use xlink:href="#p" transform="matrix(1,0,0,1,72.16666666666669,59.66666666666663) translate(30.617283950617278 71.94444444444446)"/><path d="M347.17-159.33a6 6 0 0 1 6-6h148a6 6 0 0 1 6 6v108a6 6 0 0 1-6 6h-148a6 6 0 0 1-6-6z" stroke="#282c33" stroke-width="2" fill="#fff"/><use xlink:href="#q" transform="matrix(1,0,0,1,352.1666666666667,-160.33333333333337) translate(7.283950617283949 45.27777777777778)"/><use xlink:href="#r" transform="matrix(1,0,0,1,352.1666666666667,-160.33333333333337) translate(68.82716049382717 71.94444444444446)"/><path d="M347.17 60.67a6 6 0 0 1 6-6h148a6 6 0 0 1 6 6v108a6 6 0 0 1-6 6h-148a6 6 0 0 1-6-6z" stroke="#282c33" stroke-width="2" fill="#fff"/><use xlink:href="#q" transform="matrix(1,0,0,1,352.1666666666667,59.66666666666663) translate(7.283950617283949 45.27777777777778)"/><use xlink:href="#s" transform="matrix(1,0,0,1,352.1666666666667,59.66666666666663) translate(68.82716049382717 71.94444444444446)"/><path d="M347.17 280.67a6 6 0 0 1 6-6h148a6 6 0 0 1 6 6v108a6 6 0 0 1-6 6h-148a6 6 0 0 1-6-6z" stroke="#282c33" stroke-width="2" fill="#fff"/><use xlink:href="#q" transform="matrix(1,0,0,1,352.1666666666667,279.66666666666663) translate(7.283950617283949 45.27777777777778)"/><use xlink:href="#t" transform="matrix(1,0,0,1,352.1666666666667,279.66666666666663) translate(67.00617283950618 71.94444444444446)"/><path d="M747.17-57.33c0 6.62-26.87 12-60 12-33.14 0-60-5.38-60-12v-96c0-6.63 26.86-12 60-12 33.13 0 60 5.37 60 12z" stroke="#282c33" stroke-width="2" fill="#979ea8"/><path d="M747.17-153.33c0 6.62-26.87 12-60 12-33.14 0-60-5.38-60-12" stroke="#282c33" stroke-width="2" fill="none"/><use xlink:href="#u" transform="matrix(1,0,0,1,632.1666666666667,-136.33333333333337) translate(8.76543209876543 33.90277777777778)"/><use xlink:href="#v" transform="matrix(1,0,0,1,632.1666666666667,-136.33333333333337) translate(88.88888888888889 33.90277777777778)"/><use xlink:href="#w" transform="matrix(1,0,0,1,632.1666666666667,-136.33333333333337) translate(31.574074074074076 60.56944444444445)"/><path d="M747.17 162.67c0 6.62-26.87 12-60 12-33.14 0-60-5.38-60-12v-96c0-6.63 26.86-12 60-12 33.13 0 60 5.37 60 12z" stroke="#282c33" stroke-width="2" fill="#979ea8"/><path d="M747.17 66.67c0 6.62-26.87 12-60 12-33.14 0-60-5.38-60-12" stroke="#282c33" stroke-width="2" fill="none"/><use xlink:href="#u" transform="matrix(1,0,0,1,632.1666666666667,83.66666666666663) translate(8.76543209876543 33.90277777777778)"/><use xlink:href="#x" transform="matrix(1,0,0,1,632.1666666666667,83.66666666666663) translate(88.88888888888889 33.90277777777778)"/><use xlink:href="#w" transform="matrix(1,0,0,1,632.1666666666667,83.66666666666663) translate(31.574074074074076 60.56944444444445)"/><path d="M747.17 382.67c0 6.62-26.87 12-60 12-33.14 0-60-5.38-60-12v-96c0-6.63 26.86-12 60-12 33.13 0 60 5.37 60 12z" stroke="#282c33" stroke-width="2" fill="#979ea8"/><path d="M747.17 286.67c0 6.62-26.87 12-60 12-33.14 0-60-5.38-60-12" stroke="#282c33" stroke-width="2" fill="none"/><use xlink:href="#u" transform="matrix(1,0,0,1,632.1666666666667,303.66666666666663) translate(6.944444444444443 33.90277777777778)"/><use xlink:href="#y" transform="matrix(1,0,0,1,632.1666666666667,303.66666666666663) translate(87.0679012345679 33.90277777777778)"/><use xlink:href="#w" transform="matrix(1,0,0,1,632.1666666666667,303.66666666666663) translate(31.574074074074076 60.56944444444445)"/><path d="M-51.33 114.67h4.87m4.88 0h9.75m4.87 0h9.75m4.87 0h9.75m4.87 0h9.74m4.88 0h9.75m4.87 0h9.75m4.87 0h9.75m4.87 0h4.87" stroke="#3a414a" fill="none"/><path d="M-51.32 115.14h-.5v-.95h.5zM66.17 115.14h-.52v-.95h.52z" stroke="#3a414a" stroke-width=".05" fill="#3a414a"/><path d="M-51.33-104h4.87m4.88 0h9.75m4.87 0h9.75m4.87 0h9.75m4.87 0h9.74m4.88 0h9.75m4.87 0h9.75m4.87 0h9.75m4.87 0h4.87" stroke="#3a414a" fill="none"/><path d="M-51.32-103.53h-.5v-.94h.5zM66.17-103.53h-.52v-.94h.52z" stroke="#3a414a" stroke-width=".05" fill="#3a414a"/><path d="M228.67-105.33h4.87m4.88 0h9.75m4.87 0h9.75m4.87 0h9.75m4.87 0h9.74m4.88 0h9.75m4.87 0h9.75m4.87 0h9.75m4.87 0h4.87" stroke="#3a414a" fill="none"/><path d="M228.68-104.86h-.5v-.95h.5zM346.17-104.86h-.52v-.95h.52z" stroke="#3a414a" stroke-width=".05" fill="#3a414a"/><path d="M228.67 114.67h4.87m4.88 0h9.75m4.87 0h9.75m4.87 0h9.75m4.87 0h9.74m4.88 0h9.75m4.87 0h9.75m4.87 0h9.75m4.87 0h4.87" stroke="#3a414a" fill="none"/><path d="M228.68 115.14h-.5v-.95h.5zM346.17 115.14h-.52v-.95h.52z" stroke="#3a414a" stroke-width=".05" fill="#3a414a"/><path d="M228.4 114.23l2.3-4.3m2.3-4.3l4.62-8.6m2.3-4.3l4.6-8.58m2.32-4.3l4.6-8.6m2.3-4.28l4.62-8.6m2.3-4.3l4.6-8.6m2.32-4.28l4.6-8.6m2.3-4.3l4.62-8.6m2.3-4.3l4.6-8.6m2.32-4.28l4.6-8.6m2.3-4.3l4.62-8.58m2.3-4.3l4.62-8.6m2.3-4.3l4.6-8.58m2.3-4.3l4.62-8.6m2.3-4.3l4.62-8.58m2.3-4.3l4.6-8.6m2.3-4.3l4.62-8.58m2.3-4.3l2.3-4.3" stroke="#3a414a" fill="none"/><path d="M228.83 114.44l-.66 1.23v-1.6zM346.17-104.75l-.66-.36.67-1.24z" stroke="#3a414a" stroke-width=".05" fill="#3a414a"/><path d="M228.4-104.9l2.3 4.3m2.3 4.3l4.62 8.6m2.3 4.3l4.6 8.58m2.32 4.3l4.6 8.6m2.3 4.3l4.62 8.58m2.3 4.3l4.6 8.6m2.32 4.3l4.6 8.58m2.3 4.3l4.62 8.6m2.3 4.3L286 2.5m2.32 4.3l4.6 8.6m2.3 4.28l4.62 8.6m2.3 4.3l4.62 8.6m2.3 4.28l4.6 8.6m2.3 4.3l4.62 8.6m2.3 4.28l4.62 8.6m2.3 4.3l4.6 8.58m2.3 4.3l4.62 8.6m2.3 4.3l2.3 4.3" stroke="#3a414a" fill="none"/><path d="M228.83-105.1l-.66.35v-1.6zM346.17 115.67l-.66-1.23.67-.36z" stroke="#3a414a" stroke-width=".05" fill="#3a414a"/><path d="M228.3-104.85l1.3 4.88m1.3 4.88l2.63 9.76m1.3 4.88l2.62 9.76m1.3 4.88l2.63 9.75m1.3 4.88l2.62 9.77m1.3 4.87l2.63 9.76m1.3 4.88l2.62 9.76m1.3 4.87l2.63 9.77m1.3 4.88L261 17.1m1.3 4.88l2.63 9.76m1.3 4.88l2.62 9.75m1.3 4.88L272.8 61m1.3 4.9l2.62 9.74m1.3 4.88l2.63 9.76m1.3 4.87l2.62 9.76m1.3 4.9l2.63 9.75m1.3 4.87l2.62 9.76m1.3 4.88l2.62 9.75m1.3 4.9l2.63 9.75m1.3 4.88l2.62 9.75m1.3 4.88l2.63 9.76m1.3 4.88l2.62 9.75m1.3 4.88l2.63 9.76m1.3 4.86l2.62 9.76m1.3 4.88l2.63 9.75m1.3 4.88l2.62 9.76m1.3 4.87l2.63 9.75m1.3 4.88l2.62 9.76m1.3 4.88l2.63 9.75m1.3 4.87l2.62 9.76m1.3 4.88l1.32 4.88" stroke="#3a414a" fill="none"/><path d="M228.76-104.96l-.6.16v-2.37zM346.17 336.5l-.6-2.2.6-.16z" stroke="#3a414a" stroke-width=".05" fill="#3a414a"/><path d="M228.4 115.1l2.3 4.3m2.3 4.3l4.62 8.6m2.3 4.3l4.6 8.58m2.32 4.3l4.6 8.6m2.3 4.3l4.62 8.58m2.3 4.3l4.6 8.6m2.32 4.3l4.6 8.58m2.3 4.3l4.62 8.6m2.3 4.3l4.6 8.58m2.32 4.3l4.6 8.6m2.3 4.28l4.62 8.6m2.3 4.3l4.62 8.6m2.3 4.28l4.6 8.6m2.3 4.3l4.62 8.58m2.3 4.3l4.62 8.6m2.3 4.3l4.6 8.58m2.3 4.3l4.62 8.6m2.3 4.3l2.3 4.3" stroke="#3a414a" fill="none"/><path d="M228.83 114.9l-.66.35v-1.6zM346.17 335.67l-.66-1.23.67-.36z" stroke="#3a414a" stroke-width=".05" fill="#3a414a"/><path d="M508.67-105.33h117" stroke="#3a414a" fill="none"/><path d="M508.68-104.86h-.5v-.95h.5zM626.17-104.86h-.52v-.95h.52z" stroke="#3a414a" stroke-width=".05" fill="#3a414a"/><path d="M508.67 114.67h117" stroke="#3a414a" fill="none"/><path d="M508.68 115.14h-.5v-.95h.5zM626.17 115.14h-.52v-.95h.52z" stroke="#3a414a" stroke-width=".05" fill="#3a414a"/><path d="M508.67 334.67h117" stroke="#3a414a" fill="none"/><path d="M508.68 335.14h-.5v-.95h.5zM626.17 335.14h-.52v-.95h.52z" stroke="#3a414a" stroke-width=".05" fill="#3a414a"/><path d="M307.17 200.67a6 6 0 0 1 6-6h228a6 6 0 0 1 6 6v48a6 6 0 0 1-6 6h-228a6 6 0 0 1-6-6z" fill="none"/><g><use xlink:href="#z" transform="matrix(-1.8369701987210297e-16,-1,1,-1.8369701987210297e-16,307.16666666666663,254.66666666666657) translate(20.74074074074074 124.94444444444446)"/></g><path d="M567.17 200.67a6 6 0 0 1 6-6h228a6 6 0 0 1 6 6v48a6 6 0 0 1-6 6h-228a6 6 0 0 1-6-6z" fill="none"/><g><use xlink:href="#z" transform="matrix(-1.8369701987210297e-16,-1,1,-1.8369701987210297e-16,567.1666666666667,254.66666666666663) translate(20.74074074074074 124.44444444444446)"/></g><path d="M632.38 555.14h-4.7v-.95h4.7zm14.14 0h-9.42v-.95h9.42zm7.5 0h-2.78v-.95h2.8zm63.22 0h-9.43v-.95h9.44zm9.43 0h-4.72v-.95h4.72zm-23.57 0h-2.8v-.95h2.8zM627.68 555.14h-.5v-.95h.5z" stroke="#3a414a" stroke-width=".05" fill="#3a414a"/><path d="M727.17 555.14h-.52v-.95h.52z" stroke="#3a414a" stroke-width=".05" fill="#3a414a"/><g><use xlink:href="#A" transform="matrix(1,0,0,1,654.030864197531,544) translate(0 14.222222222222223)"/></g><defs><path fill="#3a414a" d="M194 0L95-120 63-95V0H30v-248h33v124l119-124h40L117-140 236 0h-42" id="B"/><path fill="#3a414a" d="M100-194c63 0 86 42 84 106H49c0 40 14 67 53 68 26 1 43-12 49-29l28 8c-11 28-37 45-77 45C44 4 14-33 15-96c1-61 26-98 85-98zm52 81c6-60-76-77-97-28-3 7-6 17-6 28h103" id="C"/><path fill="#3a414a" d="M179-190L93 31C79 59 56 82 12 73V49c39 6 53-20 64-50L1-190h34L92-34l54-156h33" id="D"/><g id="a"><use transform="matrix(0.06172839506172839,0,0,0.06172839506172839,0,0)" xlink:href="#B"/><use transform="matrix(0.06172839506172839,0,0,0.06172839506172839,14.814814814814813,0)" xlink:href="#C"/><use transform="matrix(0.06172839506172839,0,0,0.06172839506172839,27.160493827160494,0)" xlink:href="#D"/></g><path fill="#3a414a" d="M63-220v92h138v28H63V0H30v-248h175v28H63" id="E"/><path fill="#3a414a" d="M114-163C36-179 61-72 57 0H25l-1-190h30c1 12-1 29 2 39 6-27 23-49 58-41v29" id="F"/><path fill="#3a414a" d="M100-194c62-1 85 37 85 99 1 63-27 99-86 99S16-35 15-95c0-66 28-99 85-99zM99-20c44 1 53-31 53-75 0-43-8-75-51-75s-53 32-53 75 10 74 51 75" id="G"/><path fill="#3a414a" d="M117-194c89-4 53 116 60 194h-32v-121c0-31-8-49-39-48C34-167 62-67 57 0H25l-1-190h30c1 10-1 24 2 32 11-22 29-35 61-36" id="H"/><path fill="#3a414a" d="M59-47c-2 24 18 29 38 22v24C64 9 27 4 27-40v-127H5v-23h24l9-43h21v43h35v23H59v120" id="I"/><path fill="#3a414a" d="M85-194c31 0 48 13 60 33l-1-100h32l1 261h-30c-2-10 0-23-3-31C134-8 116 4 85 4 32 4 16-35 15-94c0-66 23-100 70-100zm9 24c-40 0-46 34-46 75 0 40 6 74 45 74 42 0 51-32 51-76 0-42-9-74-50-73" id="J"/><g id="b"><use transform="matrix(0.06172839506172839,0,0,0.06172839506172839,0,0)" xlink:href="#E"/><use transform="matrix(0.06172839506172839,0,0,0.06172839506172839,13.518518518518517,0)" xlink:href="#F"/><use transform="matrix(0.06172839506172839,0,0,0.06172839506172839,20.864197530864196,0)" xlink:href="#G"/><use transform="matrix(0.06172839506172839,0,0,0.06172839506172839,33.20987654320987,0)" xlink:href="#H"/><use transform="matrix(0.06172839506172839,0,0,0.06172839506172839,45.55555555555555,0)" xlink:href="#I"/><use transform="matrix(0.06172839506172839,0,0,0.06172839506172839,51.72839506172839,0)" xlink:href="#C"/><use transform="matrix(0.06172839506172839,0,0,0.06172839506172839,64.07407407407408,0)" xlink:href="#H"/><use transform="matrix(0.06172839506172839,0,0,0.06172839506172839,76.41975308641976,0)" xlink:href="#J"/></g><path fill="#3a414a" d="M212-179c-10-28-35-45-73-45-59 0-87 40-87 99 0 60 29 101 89 101 43 0 62-24 78-52l27 14C228-24 195 4 139 4 59 4 22-46 18-125c-6-104 99-153 187-111 19 9 31 26 39 46" id="K"/><path fill="#3a414a" d="M210-169c-67 3-38 105-44 169h-31v-121c0-29-5-50-35-48C34-165 62-65 56 0H25l-1-190h30c1 10-1 24 2 32 10-44 99-50 107 0 11-21 27-35 58-36 85-2 47 119 55 194h-31v-121c0-29-5-49-35-48" id="L"/><path fill="#3a414a" d="M115-194c55 1 70 41 70 98S169 2 115 4C84 4 66-9 55-30l1 105H24l-1-265h31l2 30c10-21 28-34 59-34zm-8 174c40 0 45-34 45-75s-6-73-45-74c-42 0-51 32-51 76 0 43 10 73 51 73" id="M"/><g id="c"><use transform="matrix(0.06172839506172839,0,0,0.06172839506172839,0,0)" xlink:href="#K"/><use transform="matrix(0.06172839506172839,0,0,0.06172839506172839,15.987654320987653,0)" xlink:href="#G"/><use transform="matrix(0.06172839506172839,0,0,0.06172839506172839,28.333333333333332,0)" xlink:href="#L"/><use transform="matrix(0.06172839506172839,0,0,0.06172839506172839,46.79012345679012,0)" xlink:href="#M"/><use transform="matrix(0.06172839506172839,0,0,0.06172839506172839,59.1358024691358,0)" xlink:href="#G"/><use transform="matrix(0.06172839506172839,0,0,0.06172839506172839,71.48148148148148,0)" xlink:href="#H"/><use transform="matrix(0.06172839506172839,0,0,0.06172839506172839,83.82716049382717,0)" xlink:href="#C"/><use transform="matrix(0.06172839506172839,0,0,0.06172839506172839,96.17283950617285,0)" xlink:href="#H"/><use transform="matrix(0.06172839506172839,0,0,0.06172839506172839,108.51851851851853,0)" xlink:href="#I"/></g><path fill="#3a414a" d="M160-131c35 5 61 23 61 61C221 17 115-2 30 0v-248c76 3 177-17 177 60 0 33-19 50-47 57zm-97-11c50-1 110 9 110-42 0-47-63-36-110-37v79zm0 115c55-2 124 14 124-45 0-56-70-42-124-44v89" id="N"/><path fill="#3a414a" d="M141-36C126-15 110 5 73 4 37 3 15-17 15-53c-1-64 63-63 125-63 3-35-9-54-41-54-24 1-41 7-42 31l-33-3c5-37 33-52 76-52 45 0 72 20 72 64v82c-1 20 7 32 28 27v20c-31 9-61-2-59-35zM48-53c0 20 12 33 32 33 41-3 63-29 60-74-43 2-92-5-92 41" id="O"/><path fill="#3a414a" d="M96-169c-40 0-48 33-48 73s9 75 48 75c24 0 41-14 43-38l32 2c-6 37-31 61-74 61-59 0-76-41-82-99-10-93 101-131 147-64 4 7 5 14 7 22l-32 3c-4-21-16-35-41-35" id="P"/><path fill="#3a414a" d="M143 0L79-87 56-68V0H24v-261h32v163l83-92h37l-77 82L181 0h-38" id="Q"/><g id="d"><use transform="matrix(0.06172839506172839,0,0,0.06172839506172839,0,0)" xlink:href="#N"/><use transform="matrix(0.06172839506172839,0,0,0.06172839506172839,14.814814814814813,0)" xlink:href="#O"/><use transform="matrix(0.06172839506172839,0,0,0.06172839506172839,27.160493827160494,0)" xlink:href="#P"/><use transform="matrix(0.06172839506172839,0,0,0.06172839506172839,38.27160493827161,0)" xlink:href="#Q"/><use transform="matrix(0.06172839506172839,0,0,0.06172839506172839,49.38271604938272,0)" xlink:href="#C"/><use transform="matrix(0.06172839506172839,0,0,0.06172839506172839,61.7283950617284,0)" xlink:href="#H"/><use transform="matrix(0.06172839506172839,0,0,0.06172839506172839,74.07407407407408,0)" xlink:href="#J"/></g><path fill="#3a414a" d="M30-248c118-7 216 8 213 122C240-48 200 0 122 0H30v-248zM63-27c89 8 146-16 146-99s-60-101-146-95v194" id="R"/><g id="e"><use transform="matrix(0.06172839506172839,0,0,0.06172839506172839,0,0)" xlink:href="#R"/><use transform="matrix(0.06172839506172839,0,0,0.06172839506172839,15.987654320987653,0)" xlink:href="#O"/><use transform="matrix(0.06172839506172839,0,0,0.06172839506172839,28.333333333333332,0)" xlink:href="#I"/><use transform="matrix(0.06172839506172839,0,0,0.06172839506172839,34.50617283950617,0)" xlink:href="#O"/></g><path fill="#3a414a" d="M185-189c-5-48-123-54-124 2 14 75 158 14 163 119 3 78-121 87-175 55-17-10-28-26-33-46l33-7c5 56 141 63 141-1 0-78-155-14-162-118-5-82 145-84 179-34 5 7 8 16 11 25" id="S"/><g id="f"><use transform="matrix(0.06172839506172839,0,0,0.06172839506172839,0,0)" xlink:href="#S"/><use transform="matrix(0.06172839506172839,0,0,0.06172839506172839,14.814814814814813,0)" xlink:href="#I"/><use transform="matrix(0.06172839506172839,0,0,0.06172839506172839,20.98765432098765,0)" xlink:href="#G"/><use transform="matrix(0.06172839506172839,0,0,0.06172839506172839,33.33333333333333,0)" xlink:href="#F"/><use transform="matrix(0.06172839506172839,0,0,0.06172839506172839,40.679012345679006,0)" xlink:href="#C"/></g><path fill="#333" d="M136-208V0H84v-208H4v-40h212v40h-80" id="T"/><path fill="#333" d="M67-125c0 53 21 87 73 88 37 1 54-22 65-47l45 17C233-25 199 4 140 4 58 4 20-42 15-125 8-235 124-281 211-232c18 10 29 29 36 50l-46 12c-8-25-30-41-62-41-52 0-71 34-72 86" id="U"/><path fill="#333" d="M24-248c93 1 206-16 204 79-1 75-69 88-152 82V0H24v-248zm52 121c47 0 100 7 100-41 0-47-54-39-100-39v80" id="V"/><path fill="#333" d="M4 7l51-268h42L46 7H4" id="W"/><path fill="#333" d="M24 0v-248h52V0H24" id="X"/><g id="g"><use transform="matrix(0.04938271604938272,0,0,0.04938271604938272,0,0)" xlink:href="#T"/><use transform="matrix(0.04938271604938272,0,0,0.04938271604938272,10.814814814814815,0)" xlink:href="#U"/><use transform="matrix(0.04938271604938272,0,0,0.04938271604938272,23.60493827160494,0)" xlink:href="#V"/><use transform="matrix(0.04938271604938272,0,0,0.04938271604938272,35.45679012345679,0)" xlink:href="#W"/><use transform="matrix(0.04938271604938272,0,0,0.04938271604938272,40.39506172839506,0)" xlink:href="#X"/><use transform="matrix(0.04938271604938272,0,0,0.04938271604938272,45.333333333333336,0)" xlink:href="#V"/></g><path fill="#3a414a" d="M240 0l2-218c-23 76-54 145-80 218h-23L58-218 59 0H30v-248h44l77 211c21-75 51-140 76-211h43V0h-30" id="Y"/><path fill="#3a414a" d="M115-194c53 0 69 39 70 98 0 66-23 100-70 100C84 3 66-7 56-30L54 0H23l1-261h32v101c10-23 28-34 59-34zm-8 174c40 0 45-34 45-75 0-40-5-75-45-74-42 0-51 32-51 76 0 43 10 73 51 73" id="Z"/><path fill="#3a414a" d="M24-231v-30h32v30H24zM24 0v-190h32V0H24" id="aa"/><path fill="#3a414a" d="M24 0v-261h32V0H24" id="ab"/><g id="h"><use transform="matrix(0.06172839506172839,0,0,0.06172839506172839,0,0)" xlink:href="#Y"/><use transform="matrix(0.06172839506172839,0,0,0.06172839506172839,18.456790123456788,0)" xlink:href="#G"/><use transform="matrix(0.06172839506172839,0,0,0.06172839506172839,30.80246913580247,0)" xlink:href="#Z"/><use transform="matrix(0.06172839506172839,0,0,0.06172839506172839,43.148148148148145,0)" xlink:href="#aa"/><use transform="matrix(0.06172839506172839,0,0,0.06172839506172839,48.02469135802469,0)" xlink:href="#ab"/><use transform="matrix(0.06172839506172839,0,0,0.06172839506172839,52.901234567901234,0)" xlink:href="#C"/></g><path fill="#3a414a" d="M232-93c-1 65-40 97-104 97C67 4 28-28 28-90v-158h33c8 89-33 224 67 224 102 0 64-133 71-224h33v155" id="ac"/><path fill="#3a414a" d="M33 0v-248h34V0H33" id="ad"/><g id="i"><use transform="matrix(0.06172839506172839,0,0,0.06172839506172839,0,0)" xlink:href="#ac"/><use transform="matrix(0.06172839506172839,0,0,0.06172839506172839,15.987654320987653,0)" xlink:href="#ad"/></g><path fill="#3a414a" d="M233-177c-1 41-23 64-60 70L243 0h-38l-65-103H63V0H30v-248c88 3 205-21 203 71zM63-129c60-2 137 13 137-47 0-61-80-42-137-45v92" id="ae"/><path fill="#3a414a" d="M30 0v-248h187v28H63v79h144v27H63v87h162V0H30" id="af"/><path fill="#3a414a" d="M127-220V0H93v-220H8v-28h204v28h-85" id="ag"/><g id="j"><use transform="matrix(0.06172839506172839,0,0,0.06172839506172839,0,0)" xlink:href="#ae"/><use transform="matrix(0.06172839506172839,0,0,0.06172839506172839,15.987654320987653,0)" xlink:href="#af"/><use transform="matrix(0.06172839506172839,0,0,0.06172839506172839,30.80246913580247,0)" xlink:href="#S"/><use transform="matrix(0.06172839506172839,0,0,0.06172839506172839,45.61728395061728,0)" xlink:href="#ag"/></g><path fill="#3a414a" d="M205 0l-28-72H64L36 0H1l101-248h38L239 0h-34zm-38-99l-47-123c-12 45-31 82-46 123h93" id="ah"/><path fill="#3a414a" d="M30-248c87 1 191-15 191 75 0 78-77 80-158 76V0H30v-248zm33 125c57 0 124 11 124-50 0-59-68-47-124-48v98" id="ai"/><g id="k"><use transform="matrix(0.06172839506172839,0,0,0.06172839506172839,0,0)" xlink:href="#ah"/><use transform="matrix(0.06172839506172839,0,0,0.06172839506172839,14.814814814814813,0)" xlink:href="#ai"/><use transform="matrix(0.06172839506172839,0,0,0.06172839506172839,29.629629629629626,0)" xlink:href="#ad"/></g><path fill="#3a414a" d="M143 4C61 4 22-44 18-125c-5-107 100-154 193-111 17 8 29 25 37 43l-32 9c-13-25-37-40-76-40-61 0-88 39-88 99 0 61 29 100 91 101 35 0 62-11 79-27v-45h-74v-28h105v86C228-13 192 4 143 4" id="aj"/><path fill="#3a414a" d="M206 0h-36l-40-164L89 0H53L-1-190h32L70-26l43-164h34l41 164 42-164h31" id="ak"/><g id="l"><use transform="matrix(0.06172839506172839,0,0,0.06172839506172839,0,0)" xlink:href="#aj"/><use transform="matrix(0.06172839506172839,0,0,0.06172839506172839,17.28395061728395,0)" xlink:href="#O"/><use transform="matrix(0.06172839506172839,0,0,0.06172839506172839,29.629629629629626,0)" xlink:href="#I"/><use transform="matrix(0.06172839506172839,0,0,0.06172839506172839,35.80246913580247,0)" xlink:href="#C"/><use transform="matrix(0.06172839506172839,0,0,0.06172839506172839,48.148148148148145,0)" xlink:href="#ak"/><use transform="matrix(0.06172839506172839,0,0,0.06172839506172839,64.1358024691358,0)" xlink:href="#O"/><use transform="matrix(0.06172839506172839,0,0,0.06172839506172839,76.48148148148148,0)" xlink:href="#D"/></g><path fill="#3a414a" d="M135-143c-3-34-86-38-87 0 15 53 115 12 119 90S17 21 10-45l28-5c4 36 97 45 98 0-10-56-113-15-118-90-4-57 82-63 122-42 12 7 21 19 24 35" id="al"/><g id="m"><use transform="matrix(0.06172839506172839,0,0,0.06172839506172839,0,0)" xlink:href="#N"/><use transform="matrix(0.06172839506172839,0,0,0.06172839506172839,14.814814814814813,0)" xlink:href="#F"/><use transform="matrix(0.06172839506172839,0,0,0.06172839506172839,22.160493827160494,0)" xlink:href="#G"/><use transform="matrix(0.06172839506172839,0,0,0.06172839506172839,34.50617283950617,0)" xlink:href="#ak"/><use transform="matrix(0.06172839506172839,0,0,0.06172839506172839,50.49382716049382,0)" xlink:href="#al"/><use transform="matrix(0.06172839506172839,0,0,0.06172839506172839,61.60493827160494,0)" xlink:href="#C"/><use transform="matrix(0.06172839506172839,0,0,0.06172839506172839,73.95061728395062,0)" xlink:href="#F"/></g><g id="n"><use transform="matrix(0.06172839506172839,0,0,0.06172839506172839,0,0)" xlink:href="#N"/><use transform="matrix(0.06172839506172839,0,0,0.06172839506172839,14.814814814814813,0)" xlink:href="#O"/><use transform="matrix(0.06172839506172839,0,0,0.06172839506172839,27.160493827160494,0)" xlink:href="#P"/><use transform="matrix(0.06172839506172839,0,0,0.06172839506172839,38.27160493827161,0)" xlink:href="#Q"/><use transform="matrix(0.06172839506172839,0,0,0.06172839506172839,49.38271604938272,0)" xlink:href="#C"/><use transform="matrix(0.06172839506172839,0,0,0.06172839506172839,61.7283950617284,0)" xlink:href="#H"/><use transform="matrix(0.06172839506172839,0,0,0.06172839506172839,74.07407407407408,0)" xlink:href="#J"/></g><path fill="#3a414a" d="M101-234c-31-9-42 10-38 44h38v23H63V0H32v-167H5v-23h27c-7-52 17-82 69-68v24" id="am"/><g id="o"><use transform="matrix(0.06172839506172839,0,0,0.06172839506172839,0,0)" xlink:href="#am"/><use transform="matrix(0.06172839506172839,0,0,0.06172839506172839,6.172839506172839,0)" xlink:href="#G"/><use transform="matrix(0.06172839506172839,0,0,0.06172839506172839,18.51851851851852,0)" xlink:href="#F"/></g><g id="p"><use transform="matrix(0.06172839506172839,0,0,0.06172839506172839,0,0)" xlink:href="#E"/><use transform="matrix(0.06172839506172839,0,0,0.06172839506172839,13.518518518518517,0)" xlink:href="#F"/><use transform="matrix(0.06172839506172839,0,0,0.06172839506172839,20.864197530864196,0)" xlink:href="#G"/><use transform="matrix(0.06172839506172839,0,0,0.06172839506172839,33.20987654320987,0)" xlink:href="#H"/><use transform="matrix(0.06172839506172839,0,0,0.06172839506172839,45.55555555555555,0)" xlink:href="#I"/><use transform="matrix(0.06172839506172839,0,0,0.06172839506172839,51.72839506172839,0)" xlink:href="#C"/><use transform="matrix(0.06172839506172839,0,0,0.06172839506172839,64.07407407407408,0)" xlink:href="#H"/><use transform="matrix(0.06172839506172839,0,0,0.06172839506172839,76.41975308641976,0)" xlink:href="#J"/></g><path fill="#3a414a" d="M16-82v-28h88v28H16" id="an"/><path fill="#3a414a" d="M108 0H70L1-190h34L89-25l56-165h34" id="ao"/><g id="q"><use transform="matrix(0.06172839506172839,0,0,0.06172839506172839,0,0)" xlink:href="#Y"/><use transform="matrix(0.06172839506172839,0,0,0.06172839506172839,18.456790123456788,0)" xlink:href="#aa"/><use transform="matrix(0.06172839506172839,0,0,0.06172839506172839,23.33333333333333,0)" xlink:href="#P"/><use transform="matrix(0.06172839506172839,0,0,0.06172839506172839,34.44444444444444,0)" xlink:href="#F"/><use transform="matrix(0.06172839506172839,0,0,0.06172839506172839,41.79012345679012,0)" xlink:href="#G"/><use transform="matrix(0.06172839506172839,0,0,0.06172839506172839,54.1358024691358,0)" xlink:href="#an"/><use transform="matrix(0.06172839506172839,0,0,0.06172839506172839,61.481481481481474,0)" xlink:href="#S"/><use transform="matrix(0.06172839506172839,0,0,0.06172839506172839,76.29629629629629,0)" xlink:href="#C"/><use transform="matrix(0.06172839506172839,0,0,0.06172839506172839,88.64197530864197,0)" xlink:href="#F"/><use transform="matrix(0.06172839506172839,0,0,0.06172839506172839,95.98765432098766,0)" xlink:href="#ao"/><use transform="matrix(0.06172839506172839,0,0,0.06172839506172839,107.09876543209877,0)" xlink:href="#aa"/><use transform="matrix(0.06172839506172839,0,0,0.06172839506172839,111.97530864197532,0)" xlink:href="#P"/><use transform="matrix(0.06172839506172839,0,0,0.06172839506172839,123.08641975308643,0)" xlink:href="#C"/></g><path fill="#3a414a" d="M27 0v-27h64v-190l-56 39v-29l58-41h29v221h61V0H27" id="ap"/><use transform="matrix(0.06172839506172839,0,0,0.06172839506172839,0,0)" xlink:href="#ap" id="r"/><path fill="#3a414a" d="M101-251c82-7 93 87 43 132L82-64C71-53 59-42 53-27h129V0H18c2-99 128-94 128-182 0-28-16-43-45-43s-46 15-49 41l-32-3c6-41 34-60 81-64" id="aq"/><use transform="matrix(0.06172839506172839,0,0,0.06172839506172839,0,0)" xlink:href="#aq" id="s"/><path fill="#3a414a" d="M190 0L58-211 59 0H30v-248h39L202-35l-2-213h31V0h-41" id="ar"/><use transform="matrix(0.06172839506172839,0,0,0.06172839506172839,0,0)" xlink:href="#ar" id="t"/><g id="u"><use transform="matrix(0.06172839506172839,0,0,0.06172839506172839,0,0)" xlink:href="#S"/><use transform="matrix(0.06172839506172839,0,0,0.06172839506172839,14.814814814814813,0)" xlink:href="#C"/><use transform="matrix(0.06172839506172839,0,0,0.06172839506172839,27.160493827160494,0)" xlink:href="#F"/><use transform="matrix(0.06172839506172839,0,0,0.06172839506172839,34.50617283950617,0)" xlink:href="#ao"/><use transform="matrix(0.06172839506172839,0,0,0.06172839506172839,45.61728395061728,0)" xlink:href="#aa"/><use transform="matrix(0.06172839506172839,0,0,0.06172839506172839,50.49382716049382,0)" xlink:href="#P"/><use transform="matrix(0.06172839506172839,0,0,0.06172839506172839,61.60493827160494,0)" xlink:href="#C"/></g><use transform="matrix(0.06172839506172839,0,0,0.06172839506172839,0,0)" xlink:href="#ap" id="v"/><g id="w"><use transform="matrix(0.06172839506172839,0,0,0.06172839506172839,0,0)" xlink:href="#R"/><use transform="matrix(0.06172839506172839,0,0,0.06172839506172839,15.987654320987653,0)" xlink:href="#O"/><use transform="matrix(0.06172839506172839,0,0,0.06172839506172839,28.333333333333332,0)" xlink:href="#I"/><use transform="matrix(0.06172839506172839,0,0,0.06172839506172839,34.50617283950617,0)" xlink:href="#O"/></g><use transform="matrix(0.06172839506172839,0,0,0.06172839506172839,0,0)" xlink:href="#aq" id="x"/><use transform="matrix(0.06172839506172839,0,0,0.06172839506172839,0,0)" xlink:href="#ar" id="y"/><path fill="#3a414a" d="M33 0v-38h34V0H33" id="as"/><g id="z"><use transform="matrix(0.06172839506172839,0,0,0.06172839506172839,0,0)" xlink:href="#as"/><use transform="matrix(0.06172839506172839,0,0,0.06172839506172839,6.172839506172839,0)" xlink:href="#as"/><use transform="matrix(0.06172839506172839,0,0,0.06172839506172839,12.345679012345679,0)" xlink:href="#as"/></g><path fill="#333" d="M186 0v-106H76V0H24v-248h52v99h110v-99h50V0h-50" id="at"/><g id="A"><use transform="matrix(0.04938271604938272,0,0,0.04938271604938272,0,0)" xlink:href="#at"/><use transform="matrix(0.04938271604938272,0,0,0.04938271604938272,12.790123456790125,0)" xlink:href="#T"/><use transform="matrix(0.04938271604938272,0,0,0.04938271604938272,23.60493827160494,0)" xlink:href="#T"/><use transform="matrix(0.04938271604938272,0,0,0.04938271604938272,34.41975308641975,0)" xlink:href="#V"/></g></defs></g></svg>